<svg xmlns="http://www.w3.org/2000/svg" width="595" height="80" viewBox="0 0 238 32" shape-rendering="crispEdges">
  <title>DESARROLLADOR FULL STACK / APIS TIPADAS DE EXTREMO A EXTREMO / TDD · CI/CD · GOOGLE CLOUD</title>
  <style>
    .ch{opacity:0;animation:16.14s steps(1) infinite}.k0{animation-name:k0}@keyframes k0{0%{opacity:0}0.434%{opacity:1}29.005%{opacity:0}}.k1{animation-name:k1}@keyframes k1{0%{opacity:0}0.868%{opacity:1}28.850%{opacity:0}}.k2{animation-name:k2}@keyframes k2{0%{opacity:0}1.302%{opacity:1}28.695%{opacity:0}}.k3{animation-name:k3}@keyframes k3{0%{opacity:0}1.735%{opacity:1}28.540%{opacity:0}}.k4{animation-name:k4}@keyframes k4{0%{opacity:0}2.169%{opacity:1}28.385%{opacity:0}}.k5{animation-name:k5}@keyframes k5{0%{opacity:0}2.603%{opacity:1}28.231%{opacity:0}}.k6{animation-name:k6}@keyframes k6{0%{opacity:0}3.037%{opacity:1}28.076%{opacity:0}}.k7{animation-name:k7}@keyframes k7{0%{opacity:0}3.471%{opacity:1}27.921%{opacity:0}}.k8{animation-name:k8}@keyframes k8{0%{opacity:0}3.905%{opacity:1}27.766%{opacity:0}}.k9{animation-name:k9}@keyframes k9{0%{opacity:0}4.338%{opacity:1}27.611%{opacity:0}}.k10{animation-name:k10}@keyframes k10{0%{opacity:0}4.772%{opacity:1}27.456%{opacity:0}}.k11{animation-name:k11}@keyframes k11{0%{opacity:0}5.206%{opacity:1}27.301%{opacity:0}}.k12{animation-name:k12}@keyframes k12{0%{opacity:0}5.640%{opacity:1}27.146%{opacity:0}}.k13{animation-name:k13}@keyframes k13{0%{opacity:0}6.508%{opacity:1}26.836%{opacity:0}}.k14{animation-name:k14}@keyframes k14{0%{opacity:0}6.941%{opacity:1}26.681%{opacity:0}}.k15{animation-name:k15}@keyframes k15{0%{opacity:0}7.375%{opacity:1}26.526%{opacity:0}}.k16{animation-name:k16}@keyframes k16{0%{opacity:0}7.809%{opacity:1}26.371%{opacity:0}}.k17{animation-name:k17}@keyframes k17{0%{opacity:0}8.677%{opacity:1}26.061%{opacity:0}}.k18{animation-name:k18}@keyframes k18{0%{opacity:0}9.111%{opacity:1}25.906%{opacity:0}}.k19{animation-name:k19}@keyframes k19{0%{opacity:0}9.544%{opacity:1}25.751%{opacity:0}}.k20{animation-name:k20}@keyframes k20{0%{opacity:0}9.978%{opacity:1}25.597%{opacity:0}}.k21{animation-name:k21}@keyframes k21{0%{opacity:0}10.412%{opacity:1}25.442%{opacity:0}}.k22{animation-name:k22}@keyframes k22{0%{opacity:0}31.608%{opacity:1}65.479%{opacity:0}}.k23{animation-name:k23}@keyframes k23{0%{opacity:0}32.042%{opacity:1}65.324%{opacity:0}}.k24{animation-name:k24}@keyframes k24{0%{opacity:0}32.476%{opacity:1}65.169%{opacity:0}}.k25{animation-name:k25}@keyframes k25{0%{opacity:0}32.910%{opacity:1}65.014%{opacity:0}}.k26{animation-name:k26}@keyframes k26{0%{opacity:0}33.778%{opacity:1}64.704%{opacity:0}}.k27{animation-name:k27}@keyframes k27{0%{opacity:0}34.211%{opacity:1}64.549%{opacity:0}}.k28{animation-name:k28}@keyframes k28{0%{opacity:0}34.645%{opacity:1}64.394%{opacity:0}}.k29{animation-name:k29}@keyframes k29{0%{opacity:0}35.079%{opacity:1}64.239%{opacity:0}}.k30{animation-name:k30}@keyframes k30{0%{opacity:0}35.513%{opacity:1}64.084%{opacity:0}}.k31{animation-name:k31}@keyframes k31{0%{opacity:0}35.947%{opacity:1}63.929%{opacity:0}}.k32{animation-name:k32}@keyframes k32{0%{opacity:0}36.381%{opacity:1}63.774%{opacity:0}}.k33{animation-name:k33}@keyframes k33{0%{opacity:0}37.248%{opacity:1}63.465%{opacity:0}}.k34{animation-name:k34}@keyframes k34{0%{opacity:0}37.682%{opacity:1}63.310%{opacity:0}}.k35{animation-name:k35}@keyframes k35{0%{opacity:0}38.550%{opacity:1}63.000%{opacity:0}}.k36{animation-name:k36}@keyframes k36{0%{opacity:0}38.984%{opacity:1}62.845%{opacity:0}}.k37{animation-name:k37}@keyframes k37{0%{opacity:0}39.417%{opacity:1}62.690%{opacity:0}}.k38{animation-name:k38}@keyframes k38{0%{opacity:0}39.851%{opacity:1}62.535%{opacity:0}}.k39{animation-name:k39}@keyframes k39{0%{opacity:0}40.285%{opacity:1}62.380%{opacity:0}}.k40{animation-name:k40}@keyframes k40{0%{opacity:0}40.719%{opacity:1}62.225%{opacity:0}}.k41{animation-name:k41}@keyframes k41{0%{opacity:0}41.153%{opacity:1}62.070%{opacity:0}}.k42{animation-name:k42}@keyframes k42{0%{opacity:0}42.020%{opacity:1}61.760%{opacity:0}}.k43{animation-name:k43}@keyframes k43{0%{opacity:0}42.888%{opacity:1}61.450%{opacity:0}}.k44{animation-name:k44}@keyframes k44{0%{opacity:0}43.322%{opacity:1}61.295%{opacity:0}}.k45{animation-name:k45}@keyframes k45{0%{opacity:0}43.756%{opacity:1}61.140%{opacity:0}}.k46{animation-name:k46}@keyframes k46{0%{opacity:0}44.190%{opacity:1}60.985%{opacity:0}}.k47{animation-name:k47}@keyframes k47{0%{opacity:0}44.623%{opacity:1}60.830%{opacity:0}}.k48{animation-name:k48}@keyframes k48{0%{opacity:0}45.057%{opacity:1}60.676%{opacity:0}}.k49{animation-name:k49}@keyframes k49{0%{opacity:0}45.491%{opacity:1}60.521%{opacity:0}}.k50{animation-name:k50}@keyframes k50{0%{opacity:0}68.082%{opacity:1}97.831%{opacity:0}}.k51{animation-name:k51}@keyframes k51{0%{opacity:0}68.516%{opacity:1}97.676%{opacity:0}}.k52{animation-name:k52}@keyframes k52{0%{opacity:0}68.949%{opacity:1}97.521%{opacity:0}}.k53{animation-name:k53}@keyframes k53{0%{opacity:0}69.817%{opacity:1}97.211%{opacity:0}}.k54{animation-name:k54}@keyframes k54{0%{opacity:0}70.685%{opacity:1}96.901%{opacity:0}}.k55{animation-name:k55}@keyframes k55{0%{opacity:0}71.119%{opacity:1}96.746%{opacity:0}}.k56{animation-name:k56}@keyframes k56{0%{opacity:0}71.553%{opacity:1}96.591%{opacity:0}}.k57{animation-name:k57}@keyframes k57{0%{opacity:0}71.986%{opacity:1}96.436%{opacity:0}}.k58{animation-name:k58}@keyframes k58{0%{opacity:0}72.420%{opacity:1}96.281%{opacity:0}}.k59{animation-name:k59}@keyframes k59{0%{opacity:0}73.288%{opacity:1}95.971%{opacity:0}}.k60{animation-name:k60}@keyframes k60{0%{opacity:0}74.156%{opacity:1}95.662%{opacity:0}}.k61{animation-name:k61}@keyframes k61{0%{opacity:0}74.589%{opacity:1}95.507%{opacity:0}}.k62{animation-name:k62}@keyframes k62{0%{opacity:0}75.023%{opacity:1}95.352%{opacity:0}}.k63{animation-name:k63}@keyframes k63{0%{opacity:0}75.457%{opacity:1}95.197%{opacity:0}}.k64{animation-name:k64}@keyframes k64{0%{opacity:0}75.891%{opacity:1}95.042%{opacity:0}}.k65{animation-name:k65}@keyframes k65{0%{opacity:0}76.325%{opacity:1}94.887%{opacity:0}}.k66{animation-name:k66}@keyframes k66{0%{opacity:0}77.192%{opacity:1}94.577%{opacity:0}}.k67{animation-name:k67}@keyframes k67{0%{opacity:0}77.626%{opacity:1}94.422%{opacity:0}}.k68{animation-name:k68}@keyframes k68{0%{opacity:0}78.060%{opacity:1}94.267%{opacity:0}}.k69{animation-name:k69}@keyframes k69{0%{opacity:0}78.494%{opacity:1}94.112%{opacity:0}}.k70{animation-name:k70}@keyframes k70{0%{opacity:0}78.928%{opacity:1}93.957%{opacity:0}}
    .cursor{animation:cur 16.14s steps(1) infinite}@keyframes cur{0.000%{transform:translateX(0px)}0.434%{transform:translateX(6px)}0.868%{transform:translateX(12px)}1.302%{transform:translateX(18px)}1.735%{transform:translateX(24px)}2.169%{transform:translateX(30px)}2.603%{transform:translateX(36px)}3.037%{transform:translateX(42px)}3.471%{transform:translateX(48px)}3.905%{transform:translateX(54px)}4.338%{transform:translateX(60px)}4.772%{transform:translateX(66px)}5.206%{transform:translateX(72px)}5.640%{transform:translateX(78px)}6.074%{transform:translateX(84px)}6.508%{transform:translateX(90px)}6.941%{transform:translateX(96px)}7.375%{transform:translateX(102px)}7.809%{transform:translateX(108px)}8.243%{transform:translateX(114px)}8.677%{transform:translateX(120px)}9.111%{transform:translateX(126px)}9.544%{transform:translateX(132px)}9.978%{transform:translateX(138px)}10.412%{transform:translateX(144px)}25.442%{transform:translateX(138px)}25.597%{transform:translateX(132px)}25.751%{transform:translateX(126px)}25.906%{transform:translateX(120px)}26.061%{transform:translateX(114px)}26.216%{transform:translateX(108px)}26.371%{transform:translateX(102px)}26.526%{transform:translateX(96px)}26.681%{transform:translateX(90px)}26.836%{transform:translateX(84px)}26.991%{transform:translateX(78px)}27.146%{transform:translateX(72px)}27.301%{transform:translateX(66px)}27.456%{transform:translateX(60px)}27.611%{transform:translateX(54px)}27.766%{transform:translateX(48px)}27.921%{transform:translateX(42px)}28.076%{transform:translateX(36px)}28.231%{transform:translateX(30px)}28.385%{transform:translateX(24px)}28.540%{transform:translateX(18px)}28.695%{transform:translateX(12px)}28.850%{transform:translateX(6px)}29.005%{transform:translateX(0px)}31.608%{transform:translateX(6px)}32.042%{transform:translateX(12px)}32.476%{transform:translateX(18px)}32.910%{transform:translateX(24px)}33.344%{transform:translateX(30px)}33.778%{transform:translateX(36px)}34.211%{transform:translateX(42px)}34.645%{transform:translateX(48px)}35.079%{transform:translateX(54px)}35.513%{transform:translateX(60px)}35.947%{transform:translateX(66px)}36.381%{transform:translateX(72px)}36.814%{transform:translateX(78px)}37.248%{transform:translateX(84px)}37.682%{transform:translateX(90px)}38.116%{transform:translateX(96px)}38.550%{transform:translateX(102px)}38.984%{transform:translateX(108px)}39.417%{transform:translateX(114px)}39.851%{transform:translateX(120px)}40.285%{transform:translateX(126px)}40.719%{transform:translateX(132px)}41.153%{transform:translateX(138px)}41.587%{transform:translateX(144px)}42.020%{transform:translateX(150px)}42.454%{transform:translateX(156px)}42.888%{transform:translateX(162px)}43.322%{transform:translateX(168px)}43.756%{transform:translateX(174px)}44.190%{transform:translateX(180px)}44.623%{transform:translateX(186px)}45.057%{transform:translateX(192px)}45.491%{transform:translateX(198px)}60.521%{transform:translateX(192px)}60.676%{transform:translateX(186px)}60.830%{transform:translateX(180px)}60.985%{transform:translateX(174px)}61.140%{transform:translateX(168px)}61.295%{transform:translateX(162px)}61.450%{transform:translateX(156px)}61.605%{transform:translateX(150px)}61.760%{transform:translateX(144px)}61.915%{transform:translateX(138px)}62.070%{transform:translateX(132px)}62.225%{transform:translateX(126px)}62.380%{transform:translateX(120px)}62.535%{transform:translateX(114px)}62.690%{transform:translateX(108px)}62.845%{transform:translateX(102px)}63.000%{transform:translateX(96px)}63.155%{transform:translateX(90px)}63.310%{transform:translateX(84px)}63.465%{transform:translateX(78px)}63.619%{transform:translateX(72px)}63.774%{transform:translateX(66px)}63.929%{transform:translateX(60px)}64.084%{transform:translateX(54px)}64.239%{transform:translateX(48px)}64.394%{transform:translateX(42px)}64.549%{transform:translateX(36px)}64.704%{transform:translateX(30px)}64.859%{transform:translateX(24px)}65.014%{transform:translateX(18px)}65.169%{transform:translateX(12px)}65.324%{transform:translateX(6px)}65.479%{transform:translateX(0px)}68.082%{transform:translateX(6px)}68.516%{transform:translateX(12px)}68.949%{transform:translateX(18px)}69.383%{transform:translateX(24px)}69.817%{transform:translateX(30px)}70.251%{transform:translateX(36px)}70.685%{transform:translateX(42px)}71.119%{transform:translateX(48px)}71.553%{transform:translateX(54px)}71.986%{transform:translateX(60px)}72.420%{transform:translateX(66px)}72.854%{transform:translateX(72px)}73.288%{transform:translateX(78px)}73.722%{transform:translateX(84px)}74.156%{transform:translateX(90px)}74.589%{transform:translateX(96px)}75.023%{transform:translateX(102px)}75.457%{transform:translateX(108px)}75.891%{transform:translateX(114px)}76.325%{transform:translateX(120px)}76.759%{transform:translateX(126px)}77.192%{transform:translateX(132px)}77.626%{transform:translateX(138px)}78.060%{transform:translateX(144px)}78.494%{transform:translateX(150px)}78.928%{transform:translateX(156px)}93.957%{transform:translateX(150px)}94.112%{transform:translateX(144px)}94.267%{transform:translateX(138px)}94.422%{transform:translateX(132px)}94.577%{transform:translateX(126px)}94.732%{transform:translateX(120px)}94.887%{transform:translateX(114px)}95.042%{transform:translateX(108px)}95.197%{transform:translateX(102px)}95.352%{transform:translateX(96px)}95.507%{transform:translateX(90px)}95.662%{transform:translateX(84px)}95.817%{transform:translateX(78px)}95.971%{transform:translateX(72px)}96.126%{transform:translateX(66px)}96.281%{transform:translateX(60px)}96.436%{transform:translateX(54px)}96.591%{transform:translateX(48px)}96.746%{transform:translateX(42px)}96.901%{transform:translateX(36px)}97.056%{transform:translateX(30px)}97.211%{transform:translateX(24px)}97.366%{transform:translateX(18px)}97.521%{transform:translateX(12px)}97.676%{transform:translateX(6px)}97.831%{transform:translateX(0px)}}
    .cursor rect{animation:caret .8s steps(1) infinite}@keyframes caret{50%{opacity:.35}}
    .blink{transform-box:fill-box;transform-origin:center;animation:blink 4.5s infinite}
    @keyframes blink{0%,90%,96%,100%{transform:scaleY(1)}93%{transform:scaleY(.2)}}
    .tap-a{animation:tap .3s steps(1) infinite}.tap-b{animation:tap .3s steps(1) infinite;animation-delay:-.15s}
    @keyframes tap{50%{transform:translateY(1px)}}
    .cable{animation:flow .4s linear infinite}@keyframes flow{to{stroke-dashoffset:-2}}
  </style>
  <rect x="2" y="25" width="32" height="1" fill="#8b5a2b"/>
  <rect x="2" y="26" width="32" height="1" fill="#6b4423"/>
  <rect x="4" y="12" width="14" height="7" fill="#D97757"/>
  <rect x="4" y="12" width="14" height="1" fill="#E8906F"/>
  <rect class="blink" x="12" y="14" width="1" height="2" fill="#1a1a1a"/>
  <rect class="blink" x="16" y="14" width="1" height="2" fill="#1a1a1a"/>
  <rect x="4" y="19" width="14" height="6" fill="#16191d"/>
  <rect x="4" y="19" width="14" height="1" fill="#3a414b"/>
  <rect x="12" y="19" width="3" height="6" fill="#f0f0f0"/>
  <rect x="11" y="20" width="1" height="5" fill="#2b3038"/>
  <rect x="15" y="20" width="1" height="5" fill="#2b3038"/>
  <rect x="2" y="20" width="2" height="2" fill="#16191d"/>
  <rect x="20" y="24" width="11" height="1" fill="#8b949e"/>
  <rect x="29" y="15" width="2" height="9" fill="#30363d"/>
  <rect x="28" y="16" width="1" height="7" fill="#79c0ff" opacity="0.6"/>
  <g class="tap-b"><rect x="18" y="20" width="3" height="2" fill="#0b0d10"/><rect x="21" y="21" width="2" height="2" fill="#C15F3C"/></g>
  <g class="tap-a"><rect x="18" y="21" width="3" height="2" fill="#16191d"/><rect x="18" y="21" width="3" height="1" fill="#3a414b"/><rect x="23" y="22" width="2" height="2" fill="#D97757"/></g>
  <line class="cable" x1="31" y1="16.5" x2="37" y2="16.5" stroke="#2EA043" stroke-width="1" stroke-dasharray="1 1"/>
  <g fill="#2EA043">
  <g class="ch k0"><rect x="38" y="13" width="4" height="1"/><rect x="38" y="14" width="1" height="1"/><rect x="42" y="14" width="1" height="1"/><rect x="38" y="15" width="1" height="1"/><rect x="42" y="15" width="1" height="1"/><rect x="38" y="16" width="1" height="1"/><rect x="42" y="16" width="1" height="1"/><rect x="38" y="17" width="1" height="1"/><rect x="42" y="17" width="1" height="1"/><rect x="38" y="18" width="1" height="1"/><rect x="42" y="18" width="1" height="1"/><rect x="38" y="19" width="4" height="1"/></g>
  <g class="ch k1"><rect x="44" y="13" width="5" height="1"/><rect x="44" y="14" width="1" height="1"/><rect x="44" y="15" width="1" height="1"/><rect x="44" y="16" width="4" height="1"/><rect x="44" y="17" width="1" height="1"/><rect x="44" y="18" width="1" height="1"/><rect x="44" y="19" width="5" height="1"/></g>
  <g class="ch k2"><rect x="51" y="13" width="4" height="1"/><rect x="50" y="14" width="1" height="1"/><rect x="50" y="15" width="1" height="1"/><rect x="51" y="16" width="3" height="1"/><rect x="54" y="17" width="1" height="1"/><rect x="54" y="18" width="1" height="1"/><rect x="50" y="19" width="4" height="1"/></g>
  <g class="ch k3"><rect x="57" y="13" width="3" height="1"/><rect x="56" y="14" width="1" height="1"/><rect x="60" y="14" width="1" height="1"/><rect x="56" y="15" width="1" height="1"/><rect x="60" y="15" width="1" height="1"/><rect x="56" y="16" width="5" height="1"/><rect x="56" y="17" width="1" height="1"/><rect x="60" y="17" width="1" height="1"/><rect x="56" y="18" width="1" height="1"/><rect x="60" y="18" width="1" height="1"/><rect x="56" y="19" width="1" height="1"/><rect x="60" y="19" width="1" height="1"/></g>
  <g class="ch k4"><rect x="62" y="13" width="4" height="1"/><rect x="62" y="14" width="1" height="1"/><rect x="66" y="14" width="1" height="1"/><rect x="62" y="15" width="1" height="1"/><rect x="66" y="15" width="1" height="1"/><rect x="62" y="16" width="4" height="1"/><rect x="62" y="17" width="1" height="1"/><rect x="64" y="17" width="1" height="1"/><rect x="62" y="18" width="1" height="1"/><rect x="65" y="18" width="1" height="1"/><rect x="62" y="19" width="1" height="1"/><rect x="66" y="19" width="1" height="1"/></g>
  <g class="ch k5"><rect x="68" y="13" width="4" height="1"/><rect x="68" y="14" width="1" height="1"/><rect x="72" y="14" width="1" height="1"/><rect x="68" y="15" width="1" height="1"/><rect x="72" y="15" width="1" height="1"/><rect x="68" y="16" width="4" height="1"/><rect x="68" y="17" width="1" height="1"/><rect x="70" y="17" width="1" height="1"/><rect x="68" y="18" width="1" height="1"/><rect x="71" y="18" width="1" height="1"/><rect x="68" y="19" width="1" height="1"/><rect x="72" y="19" width="1" height="1"/></g>
  <g class="ch k6"><rect x="75" y="13" width="3" height="1"/><rect x="74" y="14" width="1" height="1"/><rect x="78" y="14" width="1" height="1"/><rect x="74" y="15" width="1" height="1"/><rect x="78" y="15" width="1" height="1"/><rect x="74" y="16" width="1" height="1"/><rect x="78" y="16" width="1" height="1"/><rect x="74" y="17" width="1" height="1"/><rect x="78" y="17" width="1" height="1"/><rect x="74" y="18" width="1" height="1"/><rect x="78" y="18" width="1" height="1"/><rect x="75" y="19" width="3" height="1"/></g>
  <g class="ch k7"><rect x="80" y="13" width="1" height="1"/><rect x="80" y="14" width="1" height="1"/><rect x="80" y="15" width="1" height="1"/><rect x="80" y="16" width="1" height="1"/><rect x="80" y="17" width="1" height="1"/><rect x="80" y="18" width="1" height="1"/><rect x="80" y="19" width="5" height="1"/></g>
  <g class="ch k8"><rect x="86" y="13" width="1" height="1"/><rect x="86" y="14" width="1" height="1"/><rect x="86" y="15" width="1" height="1"/><rect x="86" y="16" width="1" height="1"/><rect x="86" y="17" width="1" height="1"/><rect x="86" y="18" width="1" height="1"/><rect x="86" y="19" width="5" height="1"/></g>
  <g class="ch k9"><rect x="93" y="13" width="3" height="1"/><rect x="92" y="14" width="1" height="1"/><rect x="96" y="14" width="1" height="1"/><rect x="92" y="15" width="1" height="1"/><rect x="96" y="15" width="1" height="1"/><rect x="92" y="16" width="5" height="1"/><rect x="92" y="17" width="1" height="1"/><rect x="96" y="17" width="1" height="1"/><rect x="92" y="18" width="1" height="1"/><rect x="96" y="18" width="1" height="1"/><rect x="92" y="19" width="1" height="1"/><rect x="96" y="19" width="1" height="1"/></g>
  <g class="ch k10"><rect x="98" y="13" width="4" height="1"/><rect x="98" y="14" width="1" height="1"/><rect x="102" y="14" width="1" height="1"/><rect x="98" y="15" width="1" height="1"/><rect x="102" y="15" width="1" height="1"/><rect x="98" y="16" width="1" height="1"/><rect x="102" y="16" width="1" height="1"/><rect x="98" y="17" width="1" height="1"/><rect x="102" y="17" width="1" height="1"/><rect x="98" y="18" width="1" height="1"/><rect x="102" y="18" width="1" height="1"/><rect x="98" y="19" width="4" height="1"/></g>
  <g class="ch k11"><rect x="105" y="13" width="3" height="1"/><rect x="104" y="14" width="1" height="1"/><rect x="108" y="14" width="1" height="1"/><rect x="104" y="15" width="1" height="1"/><rect x="108" y="15" width="1" height="1"/><rect x="104" y="16" width="1" height="1"/><rect x="108" y="16" width="1" height="1"/><rect x="104" y="17" width="1" height="1"/><rect x="108" y="17" width="1" height="1"/><rect x="104" y="18" width="1" height="1"/><rect x="108" y="18" width="1" height="1"/><rect x="105" y="19" width="3" height="1"/></g>
  <g class="ch k12"><rect x="110" y="13" width="4" height="1"/><rect x="110" y="14" width="1" height="1"/><rect x="114" y="14" width="1" height="1"/><rect x="110" y="15" width="1" height="1"/><rect x="114" y="15" width="1" height="1"/><rect x="110" y="16" width="4" height="1"/><rect x="110" y="17" width="1" height="1"/><rect x="112" y="17" width="1" height="1"/><rect x="110" y="18" width="1" height="1"/><rect x="113" y="18" width="1" height="1"/><rect x="110" y="19" width="1" height="1"/><rect x="114" y="19" width="1" height="1"/></g>
  <g class="ch k13"><rect x="122" y="13" width="5" height="1"/><rect x="122" y="14" width="1" height="1"/><rect x="122" y="15" width="1" height="1"/><rect x="122" y="16" width="4" height="1"/><rect x="122" y="17" width="1" height="1"/><rect x="122" y="18" width="1" height="1"/><rect x="122" y="19" width="1" height="1"/></g>
  <g class="ch k14"><rect x="128" y="13" width="1" height="1"/><rect x="132" y="13" width="1" height="1"/><rect x="128" y="14" width="1" height="1"/><rect x="132" y="14" width="1" height="1"/><rect x="128" y="15" width="1" height="1"/><rect x="132" y="15" width="1" height="1"/><rect x="128" y="16" width="1" height="1"/><rect x="132" y="16" width="1" height="1"/><rect x="128" y="17" width="1" height="1"/><rect x="132" y="17" width="1" height="1"/><rect x="128" y="18" width="1" height="1"/><rect x="132" y="18" width="1" height="1"/><rect x="129" y="19" width="3" height="1"/></g>
  <g class="ch k15"><rect x="134" y="13" width="1" height="1"/><rect x="134" y="14" width="1" height="1"/><rect x="134" y="15" width="1" height="1"/><rect x="134" y="16" width="1" height="1"/><rect x="134" y="17" width="1" height="1"/><rect x="134" y="18" width="1" height="1"/><rect x="134" y="19" width="5" height="1"/></g>
  <g class="ch k16"><rect x="140" y="13" width="1" height="1"/><rect x="140" y="14" width="1" height="1"/><rect x="140" y="15" width="1" height="1"/><rect x="140" y="16" width="1" height="1"/><rect x="140" y="17" width="1" height="1"/><rect x="140" y="18" width="1" height="1"/><rect x="140" y="19" width="5" height="1"/></g>
  <g class="ch k17"><rect x="153" y="13" width="4" height="1"/><rect x="152" y="14" width="1" height="1"/><rect x="152" y="15" width="1" height="1"/><rect x="153" y="16" width="3" height="1"/><rect x="156" y="17" width="1" height="1"/><rect x="156" y="18" width="1" height="1"/><rect x="152" y="19" width="4" height="1"/></g>
  <g class="ch k18"><rect x="158" y="13" width="5" height="1"/><rect x="160" y="14" width="1" height="1"/><rect x="160" y="15" width="1" height="1"/><rect x="160" y="16" width="1" height="1"/><rect x="160" y="17" width="1" height="1"/><rect x="160" y="18" width="1" height="1"/><rect x="160" y="19" width="1" height="1"/></g>
  <g class="ch k19"><rect x="165" y="13" width="3" height="1"/><rect x="164" y="14" width="1" height="1"/><rect x="168" y="14" width="1" height="1"/><rect x="164" y="15" width="1" height="1"/><rect x="168" y="15" width="1" height="1"/><rect x="164" y="16" width="5" height="1"/><rect x="164" y="17" width="1" height="1"/><rect x="168" y="17" width="1" height="1"/><rect x="164" y="18" width="1" height="1"/><rect x="168" y="18" width="1" height="1"/><rect x="164" y="19" width="1" height="1"/><rect x="168" y="19" width="1" height="1"/></g>
  <g class="ch k20"><rect x="171" y="13" width="3" height="1"/><rect x="170" y="14" width="1" height="1"/><rect x="174" y="14" width="1" height="1"/><rect x="170" y="15" width="1" height="1"/><rect x="170" y="16" width="1" height="1"/><rect x="170" y="17" width="1" height="1"/><rect x="170" y="18" width="1" height="1"/><rect x="174" y="18" width="1" height="1"/><rect x="171" y="19" width="3" height="1"/></g>
  <g class="ch k21"><rect x="176" y="13" width="1" height="1"/><rect x="180" y="13" width="1" height="1"/><rect x="176" y="14" width="1" height="1"/><rect x="179" y="14" width="1" height="1"/><rect x="176" y="15" width="1" height="1"/><rect x="178" y="15" width="1" height="1"/><rect x="176" y="16" width="2" height="1"/><rect x="176" y="17" width="1" height="1"/><rect x="178" y="17" width="1" height="1"/><rect x="176" y="18" width="1" height="1"/><rect x="179" y="18" width="1" height="1"/><rect x="176" y="19" width="1" height="1"/><rect x="180" y="19" width="1" height="1"/></g>
  <g class="ch k22"><rect x="39" y="13" width="3" height="1"/><rect x="38" y="14" width="1" height="1"/><rect x="42" y="14" width="1" height="1"/><rect x="38" y="15" width="1" height="1"/><rect x="42" y="15" width="1" height="1"/><rect x="38" y="16" width="5" height="1"/><rect x="38" y="17" width="1" height="1"/><rect x="42" y="17" width="1" height="1"/><rect x="38" y="18" width="1" height="1"/><rect x="42" y="18" width="1" height="1"/><rect x="38" y="19" width="1" height="1"/><rect x="42" y="19" width="1" height="1"/></g>
  <g class="ch k23"><rect x="44" y="13" width="4" height="1"/><rect x="44" y="14" width="1" height="1"/><rect x="48" y="14" width="1" height="1"/><rect x="44" y="15" width="1" height="1"/><rect x="48" y="15" width="1" height="1"/><rect x="44" y="16" width="4" height="1"/><rect x="44" y="17" width="1" height="1"/><rect x="44" y="18" width="1" height="1"/><rect x="44" y="19" width="1" height="1"/></g>
  <g class="ch k24"><rect x="51" y="13" width="3" height="1"/><rect x="52" y="14" width="1" height="1"/><rect x="52" y="15" width="1" height="1"/><rect x="52" y="16" width="1" height="1"/><rect x="52" y="17" width="1" height="1"/><rect x="52" y="18" width="1" height="1"/><rect x="51" y="19" width="3" height="1"/></g>
  <g class="ch k25"><rect x="57" y="13" width="4" height="1"/><rect x="56" y="14" width="1" height="1"/><rect x="56" y="15" width="1" height="1"/><rect x="57" y="16" width="3" height="1"/><rect x="60" y="17" width="1" height="1"/><rect x="60" y="18" width="1" height="1"/><rect x="56" y="19" width="4" height="1"/></g>
  <g class="ch k26"><rect x="68" y="13" width="5" height="1"/><rect x="70" y="14" width="1" height="1"/><rect x="70" y="15" width="1" height="1"/><rect x="70" y="16" width="1" height="1"/><rect x="70" y="17" width="1" height="1"/><rect x="70" y="18" width="1" height="1"/><rect x="70" y="19" width="1" height="1"/></g>
  <g class="ch k27"><rect x="75" y="13" width="3" height="1"/><rect x="76" y="14" width="1" height="1"/><rect x="76" y="15" width="1" height="1"/><rect x="76" y="16" width="1" height="1"/><rect x="76" y="17" width="1" height="1"/><rect x="76" y="18" width="1" height="1"/><rect x="75" y="19" width="3" height="1"/></g>
  <g class="ch k28"><rect x="80" y="13" width="4" height="1"/><rect x="80" y="14" width="1" height="1"/><rect x="84" y="14" width="1" height="1"/><rect x="80" y="15" width="1" height="1"/><rect x="84" y="15" width="1" height="1"/><rect x="80" y="16" width="4" height="1"/><rect x="80" y="17" width="1" height="1"/><rect x="80" y="18" width="1" height="1"/><rect x="80" y="19" width="1" height="1"/></g>
  <g class="ch k29"><rect x="87" y="13" width="3" height="1"/><rect x="86" y="14" width="1" height="1"/><rect x="90" y="14" width="1" height="1"/><rect x="86" y="15" width="1" height="1"/><rect x="90" y="15" width="1" height="1"/><rect x="86" y="16" width="5" height="1"/><rect x="86" y="17" width="1" height="1"/><rect x="90" y="17" width="1" height="1"/><rect x="86" y="18" width="1" height="1"/><rect x="90" y="18" width="1" height="1"/><rect x="86" y="19" width="1" height="1"/><rect x="90" y="19" width="1" height="1"/></g>
  <g class="ch k30"><rect x="92" y="13" width="4" height="1"/><rect x="92" y="14" width="1" height="1"/><rect x="96" y="14" width="1" height="1"/><rect x="92" y="15" width="1" height="1"/><rect x="96" y="15" width="1" height="1"/><rect x="92" y="16" width="1" height="1"/><rect x="96" y="16" width="1" height="1"/><rect x="92" y="17" width="1" height="1"/><rect x="96" y="17" width="1" height="1"/><rect x="92" y="18" width="1" height="1"/><rect x="96" y="18" width="1" height="1"/><rect x="92" y="19" width="4" height="1"/></g>
  <g class="ch k31"><rect x="99" y="13" width="3" height="1"/><rect x="98" y="14" width="1" height="1"/><rect x="102" y="14" width="1" height="1"/><rect x="98" y="15" width="1" height="1"/><rect x="102" y="15" width="1" height="1"/><rect x="98" y="16" width="5" height="1"/><rect x="98" y="17" width="1" height="1"/><rect x="102" y="17" width="1" height="1"/><rect x="98" y="18" width="1" height="1"/><rect x="102" y="18" width="1" height="1"/><rect x="98" y="19" width="1" height="1"/><rect x="102" y="19" width="1" height="1"/></g>
  <g class="ch k32"><rect x="105" y="13" width="4" height="1"/><rect x="104" y="14" width="1" height="1"/><rect x="104" y="15" width="1" height="1"/><rect x="105" y="16" width="3" height="1"/><rect x="108" y="17" width="1" height="1"/><rect x="108" y="18" width="1" height="1"/><rect x="104" y="19" width="4" height="1"/></g>
  <g class="ch k33"><rect x="116" y="13" width="4" height="1"/><rect x="116" y="14" width="1" height="1"/><rect x="120" y="14" width="1" height="1"/><rect x="116" y="15" width="1" height="1"/><rect x="120" y="15" width="1" height="1"/><rect x="116" y="16" width="1" height="1"/><rect x="120" y="16" width="1" height="1"/><rect x="116" y="17" width="1" height="1"/><rect x="120" y="17" width="1" height="1"/><rect x="116" y="18" width="1" height="1"/><rect x="120" y="18" width="1" height="1"/><rect x="116" y="19" width="4" height="1"/></g>
  <g class="ch k34"><rect x="122" y="13" width="5" height="1"/><rect x="122" y="14" width="1" height="1"/><rect x="122" y="15" width="1" height="1"/><rect x="122" y="16" width="4" height="1"/><rect x="122" y="17" width="1" height="1"/><rect x="122" y="18" width="1" height="1"/><rect x="122" y="19" width="5" height="1"/></g>
  <g class="ch k35"><rect x="134" y="13" width="5" height="1"/><rect x="134" y="14" width="1" height="1"/><rect x="134" y="15" width="1" height="1"/><rect x="134" y="16" width="4" height="1"/><rect x="134" y="17" width="1" height="1"/><rect x="134" y="18" width="1" height="1"/><rect x="134" y="19" width="5" height="1"/></g>
  <g class="ch k36"><rect x="140" y="13" width="1" height="1"/><rect x="144" y="13" width="1" height="1"/><rect x="140" y="14" width="1" height="1"/><rect x="144" y="14" width="1" height="1"/><rect x="141" y="15" width="1" height="1"/><rect x="143" y="15" width="1" height="1"/><rect x="142" y="16" width="1" height="1"/><rect x="141" y="17" width="1" height="1"/><rect x="143" y="17" width="1" height="1"/><rect x="140" y="18" width="1" height="1"/><rect x="144" y="18" width="1" height="1"/><rect x="140" y="19" width="1" height="1"/><rect x="144" y="19" width="1" height="1"/></g>
  <g class="ch k37"><rect x="146" y="13" width="5" height="1"/><rect x="148" y="14" width="1" height="1"/><rect x="148" y="15" width="1" height="1"/><rect x="148" y="16" width="1" height="1"/><rect x="148" y="17" width="1" height="1"/><rect x="148" y="18" width="1" height="1"/><rect x="148" y="19" width="1" height="1"/></g>
  <g class="ch k38"><rect x="152" y="13" width="4" height="1"/><rect x="152" y="14" width="1" height="1"/><rect x="156" y="14" width="1" height="1"/><rect x="152" y="15" width="1" height="1"/><rect x="156" y="15" width="1" height="1"/><rect x="152" y="16" width="4" height="1"/><rect x="152" y="17" width="1" height="1"/><rect x="154" y="17" width="1" height="1"/><rect x="152" y="18" width="1" height="1"/><rect x="155" y="18" width="1" height="1"/><rect x="152" y="19" width="1" height="1"/><rect x="156" y="19" width="1" height="1"/></g>
  <g class="ch k39"><rect x="158" y="13" width="5" height="1"/><rect x="158" y="14" width="1" height="1"/><rect x="158" y="15" width="1" height="1"/><rect x="158" y="16" width="4" height="1"/><rect x="158" y="17" width="1" height="1"/><rect x="158" y="18" width="1" height="1"/><rect x="158" y="19" width="5" height="1"/></g>
  <g class="ch k40"><rect x="164" y="13" width="1" height="1"/><rect x="168" y="13" width="1" height="1"/><rect x="164" y="14" width="2" height="1"/><rect x="167" y="14" width="2" height="1"/><rect x="164" y="15" width="1" height="1"/><rect x="166" y="15" width="1" height="1"/><rect x="168" y="15" width="1" height="1"/><rect x="164" y="16" width="1" height="1"/><rect x="166" y="16" width="1" height="1"/><rect x="168" y="16" width="1" height="1"/><rect x="164" y="17" width="1" height="1"/><rect x="168" y="17" width="1" height="1"/><rect x="164" y="18" width="1" height="1"/><rect x="168" y="18" width="1" height="1"/><rect x="164" y="19" width="1" height="1"/><rect x="168" y="19" width="1" height="1"/></g>
  <g class="ch k41"><rect x="171" y="13" width="3" height="1"/><rect x="170" y="14" width="1" height="1"/><rect x="174" y="14" width="1" height="1"/><rect x="170" y="15" width="1" height="1"/><rect x="174" y="15" width="1" height="1"/><rect x="170" y="16" width="1" height="1"/><rect x="174" y="16" width="1" height="1"/><rect x="170" y="17" width="1" height="1"/><rect x="174" y="17" width="1" height="1"/><rect x="170" y="18" width="1" height="1"/><rect x="174" y="18" width="1" height="1"/><rect x="171" y="19" width="3" height="1"/></g>
  <g class="ch k42"><rect x="183" y="13" width="3" height="1"/><rect x="182" y="14" width="1" height="1"/><rect x="186" y="14" width="1" height="1"/><rect x="182" y="15" width="1" height="1"/><rect x="186" y="15" width="1" height="1"/><rect x="182" y="16" width="5" height="1"/><rect x="182" y="17" width="1" height="1"/><rect x="186" y="17" width="1" height="1"/><rect x="182" y="18" width="1" height="1"/><rect x="186" y="18" width="1" height="1"/><rect x="182" y="19" width="1" height="1"/><rect x="186" y="19" width="1" height="1"/></g>
  <g class="ch k43"><rect x="194" y="13" width="5" height="1"/><rect x="194" y="14" width="1" height="1"/><rect x="194" y="15" width="1" height="1"/><rect x="194" y="16" width="4" height="1"/><rect x="194" y="17" width="1" height="1"/><rect x="194" y="18" width="1" height="1"/><rect x="194" y="19" width="5" height="1"/></g>
  <g class="ch k44"><rect x="200" y="13" width="1" height="1"/><rect x="204" y="13" width="1" height="1"/><rect x="200" y="14" width="1" height="1"/><rect x="204" y="14" width="1" height="1"/><rect x="201" y="15" width="1" height="1"/><rect x="203" y="15" width="1" height="1"/><rect x="202" y="16" width="1" height="1"/><rect x="201" y="17" width="1" height="1"/><rect x="203" y="17" width="1" height="1"/><rect x="200" y="18" width="1" height="1"/><rect x="204" y="18" width="1" height="1"/><rect x="200" y="19" width="1" height="1"/><rect x="204" y="19" width="1" height="1"/></g>
  <g class="ch k45"><rect x="206" y="13" width="5" height="1"/><rect x="208" y="14" width="1" height="1"/><rect x="208" y="15" width="1" height="1"/><rect x="208" y="16" width="1" height="1"/><rect x="208" y="17" width="1" height="1"/><rect x="208" y="18" width="1" height="1"/><rect x="208" y="19" width="1" height="1"/></g>
  <g class="ch k46"><rect x="212" y="13" width="4" height="1"/><rect x="212" y="14" width="1" height="1"/><rect x="216" y="14" width="1" height="1"/><rect x="212" y="15" width="1" height="1"/><rect x="216" y="15" width="1" height="1"/><rect x="212" y="16" width="4" height="1"/><rect x="212" y="17" width="1" height="1"/><rect x="214" y="17" width="1" height="1"/><rect x="212" y="18" width="1" height="1"/><rect x="215" y="18" width="1" height="1"/><rect x="212" y="19" width="1" height="1"/><rect x="216" y="19" width="1" height="1"/></g>
  <g class="ch k47"><rect x="218" y="13" width="5" height="1"/><rect x="218" y="14" width="1" height="1"/><rect x="218" y="15" width="1" height="1"/><rect x="218" y="16" width="4" height="1"/><rect x="218" y="17" width="1" height="1"/><rect x="218" y="18" width="1" height="1"/><rect x="218" y="19" width="5" height="1"/></g>
  <g class="ch k48"><rect x="224" y="13" width="1" height="1"/><rect x="228" y="13" width="1" height="1"/><rect x="224" y="14" width="2" height="1"/><rect x="227" y="14" width="2" height="1"/><rect x="224" y="15" width="1" height="1"/><rect x="226" y="15" width="1" height="1"/><rect x="228" y="15" width="1" height="1"/><rect x="224" y="16" width="1" height="1"/><rect x="226" y="16" width="1" height="1"/><rect x="228" y="16" width="1" height="1"/><rect x="224" y="17" width="1" height="1"/><rect x="228" y="17" width="1" height="1"/><rect x="224" y="18" width="1" height="1"/><rect x="228" y="18" width="1" height="1"/><rect x="224" y="19" width="1" height="1"/><rect x="228" y="19" width="1" height="1"/></g>
  <g class="ch k49"><rect x="231" y="13" width="3" height="1"/><rect x="230" y="14" width="1" height="1"/><rect x="234" y="14" width="1" height="1"/><rect x="230" y="15" width="1" height="1"/><rect x="234" y="15" width="1" height="1"/><rect x="230" y="16" width="1" height="1"/><rect x="234" y="16" width="1" height="1"/><rect x="230" y="17" width="1" height="1"/><rect x="234" y="17" width="1" height="1"/><rect x="230" y="18" width="1" height="1"/><rect x="234" y="18" width="1" height="1"/><rect x="231" y="19" width="3" height="1"/></g>
  <g class="ch k50"><rect x="38" y="13" width="5" height="1"/><rect x="40" y="14" width="1" height="1"/><rect x="40" y="15" width="1" height="1"/><rect x="40" y="16" width="1" height="1"/><rect x="40" y="17" width="1" height="1"/><rect x="40" y="18" width="1" height="1"/><rect x="40" y="19" width="1" height="1"/></g>
  <g class="ch k51"><rect x="44" y="13" width="4" height="1"/><rect x="44" y="14" width="1" height="1"/><rect x="48" y="14" width="1" height="1"/><rect x="44" y="15" width="1" height="1"/><rect x="48" y="15" width="1" height="1"/><rect x="44" y="16" width="1" height="1"/><rect x="48" y="16" width="1" height="1"/><rect x="44" y="17" width="1" height="1"/><rect x="48" y="17" width="1" height="1"/><rect x="44" y="18" width="1" height="1"/><rect x="48" y="18" width="1" height="1"/><rect x="44" y="19" width="4" height="1"/></g>
  <g class="ch k52"><rect x="50" y="13" width="4" height="1"/><rect x="50" y="14" width="1" height="1"/><rect x="54" y="14" width="1" height="1"/><rect x="50" y="15" width="1" height="1"/><rect x="54" y="15" width="1" height="1"/><rect x="50" y="16" width="1" height="1"/><rect x="54" y="16" width="1" height="1"/><rect x="50" y="17" width="1" height="1"/><rect x="54" y="17" width="1" height="1"/><rect x="50" y="18" width="1" height="1"/><rect x="54" y="18" width="1" height="1"/><rect x="50" y="19" width="4" height="1"/></g>
  <g class="ch k53"><rect x="63" y="16" width="2" height="1"/><rect x="63" y="17" width="2" height="1"/></g>
  <g class="ch k54"><rect x="75" y="13" width="3" height="1"/><rect x="74" y="14" width="1" height="1"/><rect x="78" y="14" width="1" height="1"/><rect x="74" y="15" width="1" height="1"/><rect x="74" y="16" width="1" height="1"/><rect x="74" y="17" width="1" height="1"/><rect x="74" y="18" width="1" height="1"/><rect x="78" y="18" width="1" height="1"/><rect x="75" y="19" width="3" height="1"/></g>
  <g class="ch k55"><rect x="81" y="13" width="3" height="1"/><rect x="82" y="14" width="1" height="1"/><rect x="82" y="15" width="1" height="1"/><rect x="82" y="16" width="1" height="1"/><rect x="82" y="17" width="1" height="1"/><rect x="82" y="18" width="1" height="1"/><rect x="81" y="19" width="3" height="1"/></g>
  <g class="ch k56"><rect x="90" y="13" width="1" height="1"/><rect x="89" y="14" width="1" height="1"/><rect x="89" y="15" width="1" height="1"/><rect x="88" y="16" width="1" height="1"/><rect x="87" y="17" width="1" height="1"/><rect x="87" y="18" width="1" height="1"/><rect x="86" y="19" width="1" height="1"/></g>
  <g class="ch k57"><rect x="93" y="13" width="3" height="1"/><rect x="92" y="14" width="1" height="1"/><rect x="96" y="14" width="1" height="1"/><rect x="92" y="15" width="1" height="1"/><rect x="92" y="16" width="1" height="1"/><rect x="92" y="17" width="1" height="1"/><rect x="92" y="18" width="1" height="1"/><rect x="96" y="18" width="1" height="1"/><rect x="93" y="19" width="3" height="1"/></g>
  <g class="ch k58"><rect x="98" y="13" width="4" height="1"/><rect x="98" y="14" width="1" height="1"/><rect x="102" y="14" width="1" height="1"/><rect x="98" y="15" width="1" height="1"/><rect x="102" y="15" width="1" height="1"/><rect x="98" y="16" width="1" height="1"/><rect x="102" y="16" width="1" height="1"/><rect x="98" y="17" width="1" height="1"/><rect x="102" y="17" width="1" height="1"/><rect x="98" y="18" width="1" height="1"/><rect x="102" y="18" width="1" height="1"/><rect x="98" y="19" width="4" height="1"/></g>
  <g class="ch k59"><rect x="111" y="16" width="2" height="1"/><rect x="111" y="17" width="2" height="1"/></g>
  <g class="ch k60"><rect x="123" y="13" width="3" height="1"/><rect x="122" y="14" width="1" height="1"/><rect x="126" y="14" width="1" height="1"/><rect x="122" y="15" width="1" height="1"/><rect x="122" y="16" width="1" height="1"/><rect x="124" y="16" width="3" height="1"/><rect x="122" y="17" width="1" height="1"/><rect x="126" y="17" width="1" height="1"/><rect x="122" y="18" width="1" height="1"/><rect x="126" y="18" width="1" height="1"/><rect x="123" y="19" width="4" height="1"/></g>
  <g class="ch k61"><rect x="129" y="13" width="3" height="1"/><rect x="128" y="14" width="1" height="1"/><rect x="132" y="14" width="1" height="1"/><rect x="128" y="15" width="1" height="1"/><rect x="132" y="15" width="1" height="1"/><rect x="128" y="16" width="1" height="1"/><rect x="132" y="16" width="1" height="1"/><rect x="128" y="17" width="1" height="1"/><rect x="132" y="17" width="1" height="1"/><rect x="128" y="18" width="1" height="1"/><rect x="132" y="18" width="1" height="1"/><rect x="129" y="19" width="3" height="1"/></g>
  <g class="ch k62"><rect x="135" y="13" width="3" height="1"/><rect x="134" y="14" width="1" height="1"/><rect x="138" y="14" width="1" height="1"/><rect x="134" y="15" width="1" height="1"/><rect x="138" y="15" width="1" height="1"/><rect x="134" y="16" width="1" height="1"/><rect x="138" y="16" width="1" height="1"/><rect x="134" y="17" width="1" height="1"/><rect x="138" y="17" width="1" height="1"/><rect x="134" y="18" width="1" height="1"/><rect x="138" y="18" width="1" height="1"/><rect x="135" y="19" width="3" height="1"/></g>
  <g class="ch k63"><rect x="141" y="13" width="3" height="1"/><rect x="140" y="14" width="1" height="1"/><rect x="144" y="14" width="1" height="1"/><rect x="140" y="15" width="1" height="1"/><rect x="140" y="16" width="1" height="1"/><rect x="142" y="16" width="3" height="1"/><rect x="140" y="17" width="1" height="1"/><rect x="144" y="17" width="1" height="1"/><rect x="140" y="18" width="1" height="1"/><rect x="144" y="18" width="1" height="1"/><rect x="141" y="19" width="4" height="1"/></g>
  <g class="ch k64"><rect x="146" y="13" width="1" height="1"/><rect x="146" y="14" width="1" height="1"/><rect x="146" y="15" width="1" height="1"/><rect x="146" y="16" width="1" height="1"/><rect x="146" y="17" width="1" height="1"/><rect x="146" y="18" width="1" height="1"/><rect x="146" y="19" width="5" height="1"/></g>
  <g class="ch k65"><rect x="152" y="13" width="5" height="1"/><rect x="152" y="14" width="1" height="1"/><rect x="152" y="15" width="1" height="1"/><rect x="152" y="16" width="4" height="1"/><rect x="152" y="17" width="1" height="1"/><rect x="152" y="18" width="1" height="1"/><rect x="152" y="19" width="5" height="1"/></g>
  <g class="ch k66"><rect x="165" y="13" width="3" height="1"/><rect x="164" y="14" width="1" height="1"/><rect x="168" y="14" width="1" height="1"/><rect x="164" y="15" width="1" height="1"/><rect x="164" y="16" width="1" height="1"/><rect x="164" y="17" width="1" height="1"/><rect x="164" y="18" width="1" height="1"/><rect x="168" y="18" width="1" height="1"/><rect x="165" y="19" width="3" height="1"/></g>
  <g class="ch k67"><rect x="170" y="13" width="1" height="1"/><rect x="170" y="14" width="1" height="1"/><rect x="170" y="15" width="1" height="1"/><rect x="170" y="16" width="1" height="1"/><rect x="170" y="17" width="1" height="1"/><rect x="170" y="18" width="1" height="1"/><rect x="170" y="19" width="5" height="1"/></g>
  <g class="ch k68"><rect x="177" y="13" width="3" height="1"/><rect x="176" y="14" width="1" height="1"/><rect x="180" y="14" width="1" height="1"/><rect x="176" y="15" width="1" height="1"/><rect x="180" y="15" width="1" height="1"/><rect x="176" y="16" width="1" height="1"/><rect x="180" y="16" width="1" height="1"/><rect x="176" y="17" width="1" height="1"/><rect x="180" y="17" width="1" height="1"/><rect x="176" y="18" width="1" height="1"/><rect x="180" y="18" width="1" height="1"/><rect x="177" y="19" width="3" height="1"/></g>
  <g class="ch k69"><rect x="182" y="13" width="1" height="1"/><rect x="186" y="13" width="1" height="1"/><rect x="182" y="14" width="1" height="1"/><rect x="186" y="14" width="1" height="1"/><rect x="182" y="15" width="1" height="1"/><rect x="186" y="15" width="1" height="1"/><rect x="182" y="16" width="1" height="1"/><rect x="186" y="16" width="1" height="1"/><rect x="182" y="17" width="1" height="1"/><rect x="186" y="17" width="1" height="1"/><rect x="182" y="18" width="1" height="1"/><rect x="186" y="18" width="1" height="1"/><rect x="183" y="19" width="3" height="1"/></g>
  <g class="ch k70"><rect x="188" y="13" width="4" height="1"/><rect x="188" y="14" width="1" height="1"/><rect x="192" y="14" width="1" height="1"/><rect x="188" y="15" width="1" height="1"/><rect x="192" y="15" width="1" height="1"/><rect x="188" y="16" width="1" height="1"/><rect x="192" y="16" width="1" height="1"/><rect x="188" y="17" width="1" height="1"/><rect x="192" y="17" width="1" height="1"/><rect x="188" y="18" width="1" height="1"/><rect x="192" y="18" width="1" height="1"/><rect x="188" y="19" width="4" height="1"/></g>
  </g>
  <g class="cursor"><rect x="38" y="13" width="5" height="7" fill="#7ee787"/></g>
</svg>
